#!OML:ASF H:\ManfredETheater\Project 1\Capture day 1\Session 1\subject.ASF
:FULLY-SPECIFIED
:DEGREES
152
root 1.28536 4.43713 -18.7346 141.063 -4.94879 -132.243
lowerback 38.1521 -0.584536 3.73364
upperback 9.54608 -1.87693 6.21476
thorax -7.97639 -2.44662 5.61797
lowerneck -11.6367 -7.20869 -7.5212
upperneck 11.5123 -10.7258 13.0004
head 6.5451 -4.79318 4.32465
rclavicle 9.22361e-014 -9.54166e-015
rhumerus 27.5679 -20.1638 -36.8633
rradius 83.4888
rwrist -12.7186
rhand -34.7507 -9.78633
rfingers 7.12502
rthumb -7.90418 -39.6186
lclavicle 9.22361e-014 -9.54166e-015
lhumerus -16.5589 -1.67402 78.0439
lradius 45.513
lwrist -39.1639
lhand -40.2081 -4.64912
lfingers 7.12502
lthumb -13.1684 24.915
rfemur -96.2831 -41.2324 22.9941
rtibia 115.508
rfoot 2.04901 10.8077
rtoes -33.0799
lfemur -92.3455 29.8479 -54.8326
ltibia 129.136
lfoot -11.2096 -3.81585
ltoes -22.1752
153
root 1.32509 4.60452 -18.9157 141.616 -6.75501 -131.758
lowerback 39.3401 -0.782111 4.53883
upperback 9.67948 -1.88175 6.34701
thorax -8.20243 -2.52106 5.39578
lowerneck -11.6882 -7.25536 -7.51444
upperneck 11.0135 -10.8076 13.459
head 6.43494 -4.8158 4.4605
rclavicle -6.52014e-014 -5.08889e-014
rhumerus 28.4351 -20.1193 -36.3692
rradius 82.7285
rwrist -12.7514
rhand -34.599 -9.71041
rfingers 7.12502
rthumb -7.75777 -39.5481
lclavicle -6.52014e-014 -5.08889e-014
lhumerus -15.5691 -2.60685 78.2064
lradius 46.2289
lwrist -35.7565
lhand -38.8027 -6.36966
lfingers 7.12502
lthumb -11.8134 23.2771
rfemur -96.5108 -39.5146 22.8201
rtibia 113.673
rfoot 1.67826 11.8912
rtoes -35.1324
lfemur -93.1148 30.3071 -55.7889
ltibia 130.185
lfoot -11.2582 -3.46472
ltoes -16.8655
154
root 1.362 4.77584 -19.1039 142.218 -8.50684 -131.577
lowerback 40.3766 -0.866694 5.04236
upperback 9.80867 -1.83713 6.43615
thorax -8.3775 -2.55938 5.25975
lowerneck -11.6541 -7.31422 -7.51714
upperneck 10.4687 -10.9033 13.9246
head 6.29919 -4.85283 4.60081
rclavicle 7.15625e-014 3.49861e-014
rhumerus 29.1801 -19.8839 -35.7472
rradius 81.93
rwrist -12.9691
rhand -34.295 -9.53053
rfingers 7.12502
rthumb -7.46428 -39.3788
lclavicle 7.15625e-014 3.49861e-014
lhumerus -14.9493 -3.34122 78.211
lradius 47.113
lwrist -33.2305
lhand -37.7443 -8.50619
lfingers 7.12502
lthumb -10.7926 21.1965
rfemur -97.0482 -37.7913 22.797
rtibia 111.878
rfoot 1.51993 12.6238
rtoes -37.1334
lfemur -93.7657 30.6904 -56.7021
ltibia 131.185
lfoot -11.2397 -3.35176
ltoes -11.797
155
root 1.39655 4.95101 -19.2978 142.883 -10.1722 -131.678
lowerback 41.2894 -0.818948 5.24191
upperback 9.94592 -1.73717 6.49767
thorax -8.50378 -2.56201 5.22221
lowerneck -11.569 -7.38053 -7.53118
upperneck 9.89251 -11.0125 14.4283
head 6.15088 -4.90172 4.75489
rclavicle -1.43125e-014 -6.36111e-014
rhumerus 29.7868 -19.4918 -35.0293
rradius 81.1408
rwrist -13.3494
rhand -33.7619 -9.27943
rfingers 7.12502
rthumb -6.94973 -39.1453
lclavicle -1.43125e-014 -6.36111e-014
lhumerus -14.6758 -3.92922 78.1025
lradius 48.0374
lwrist -31.4564
lhand -37.3947 -10.877
lfingers 7.12502
lthumb -10.4554 18.843
rfemur -97.8455 -36.0417 22.9448
rtibia 110.11
rfoot 1.63001 13.0223
rtoes -38.9619
lfemur -94.2698 31.0234 -57.4867
ltibia 132.088
lfoot -11.2037 -3.50205
ltoes -7.37651
156
root 1.42902 5.12913 -19.4986 143.607 -11.7629 -132.047
lowerback 42.1051 -0.645817 5.13867
upperback 10.0942 -1.60094 6.52307
thorax -8.5905 -2.53818 5.27969
lowerneck -11.4749 -7.43634 -7.53343
upperneck 9.33304 -11.1218 14.9791
head 6.01041 -4.95255 4.92215
rclavicle 2.62396e-014 1.90833e-014
rhumerus 30.2134 -18.9627 -34.2629
rradius 80.4141
rwrist -13.7933
rhand -33.0333 -8.9813
rfingers 7.12502
rthumb -6.24638 -38.8692
lclavicle 2.62396e-014 1.90833e-014
lhumerus -14.6973 -4.40867 77.9014
lradius 48.943
lwrist -30.298
lhand -37.7039 -13.2685
lfingers 7.12502
lthumb -10.7537 16.4362
rfemur -98.8453 -34.2935 23.219
rtibia 108.367
rfoot 2.07965 13.1275
rtoes -40.3144
lfemur -94.5917 31.3236 -58.1459
ltibia 132.919
lfoot -11.2328 -3.85621
ltoes -3.91664
157
root 1.46006 5.30925 -19.7045 144.368 -13.2455 -132.611
lowerback 42.8545 -0.367094 4.81022
upperback 10.2696 -1.43888 6.52561
thorax -8.62928 -2.49971 5.41084
lowerneck -11.4228 -7.46989 -7.52112
upperneck 8.80907 -11.2176 15.5857
head 5.8913 -4.99581 5.10494
rclavicle -2.06736e-014 -7.31528e-014
rhumerus 30.4641 -18.3399 -33.5218
rradius 79.799
rwrist -14.2004
rhand -32.1798 -8.6443
rfingers 7.12502
rthumb -5.42232 -38.5549
lclavicle -2.06736e-014 -7.31528e-014
lhumerus -14.9037 -4.81002 77.6232
lradius 49.7642
lwrist -29.5442
lhand -38.5585 -15.6564
lfingers 7.12502
lthumb -11.5779 14.0038
rfemur -99.9501 -32.5435 23.6473
rtibia 106.626
rfoot 2.86711 13.0223
rtoes -41.0819
lfemur -94.7709 31.6953 -58.6693
ltibia 133.702
lfoot -11.3192 -4.43233
ltoes -1.30281
158
root 1.49 5.49 -19.9152 145.128 -14.6004 -133.295
lowerback 43.5663 -0.0192921 4.34826
upperback 10.4756 -1.2682 6.50324
thorax -8.62264 -2.45899 5.57466
lowerneck -11.4269 -7.46313 -7.49468
upperneck 8.32742 -11.2781 16.2574
head 5.79603 -5.01999 5.30852
rclavicle 3.97569e-014 -2.8625e-014
rhumerus 30.5321 -17.6555 -32.8753
rradius 79.3386
rwrist -14.4999
rhand -31.3132 -8.27816
rfingers 7.12502
rthumb -4.58553 -38.2085
lclavicle 3.97569e-014 -2.8625e-014
lhumerus -15.1865 -5.13232 77.2643
lradius 50.4613
lwrist -29.0176
lhand -39.6657 -17.9166
lfingers 7.12502
lthumb -12.6455 11.6806
rfemur -101.075 -30.8088 24.2559
rtibia 104.877
rfoot 3.91297 12.7894
rtoes -41.2293
lfemur -94.8317 32.2373 -59.0475
ltibia 134.436
lfoot -11.4744 -5.24158
ltoes 0.823378
159
root 1.51966 5.67001 -20.1304 145.862 -15.8555 -134.024
lowerback 44.2445 0.348199 3.84041
upperback 10.7104 -1.11615 6.45319
thorax -8.56964 -2.43008 5.7349
lowerneck -11.5128 -7.42204 -7.43436
upperneck 7.90978 -11.3092 16.9505
head 5.73203 -5.02668 5.51437
rclavicle 4.29375e-014 1.52667e-013
rhumerus 30.4216 -16.9472 -32.3801
rradius 79.05
rwrist -14.6488
rhand -30.5341 -7.84093
rfingers 7.12502
rthumb -3.83321 -37.7862
lclavicle 4.29375e-014 1.52667e-013
lhumerus -15.4416 -5.35562 76.8164
lradius 50.9189
lwrist -28.8095
lhand -41.0977 -20.2086
lfingers 7.12502
lthumb -14.0258 9.2982
rfemur -102.177 -29.1451 25.0566
rtibia 103.12
rfoot 5.14836 12.551
rtoes -40.9128
lfemur -94.7974 33.0109 -59.3107
ltibia 135.149
lfoot -11.7187 -6.24081
ltoes 2.56514
